<?xml version="1.0" encoding="utf-8"?>
<!-- Generator: Adobe Illustrator 16.0.0, SVG Export Plug-In . SVG Version: 6.00 Build 0)  -->
<!DOCTYPE svg PUBLIC "-//W3C//DTD SVG 1.1//EN" "http://www.w3.org/Graphics/SVG/1.1/DTD/svg11.dtd">
<svg version="1.1" id="Calque_1" xmlns="http://www.w3.org/2000/svg" xmlns:xlink="http://www.w3.org/1999/xlink" x="0px" y="0px"
	 width="566.93px" height="566.93px" viewBox="0 0 566.93 566.93" enable-background="new 0 0 566.93 566.93" xml:space="preserve">
<path fill="#010202" d="M512.51,286.033c0-145.851-111.559-264.088-249.175-264.088c-137.616,0-249.175,118.237-249.175,264.088
	c0,145.854,111.56,264.09,249.175,264.09C400.951,550.123,512.51,431.887,512.51,286.033"/>
<ellipse fill="none" stroke="#92927A" stroke-miterlimit="10" cx="263.334" cy="286.033" rx="249.175" ry="264.088"/>
<path fill="#E3D7A8" d="M264.613,288.338c5.376,5.742,10.409,11.104,15.428,16.479c7.861,8.423,15.695,16.869,23.574,25.275
	c5.959,6.354,11.993,12.632,17.95,18.985c7.88,8.406,15.695,16.872,23.575,25.277c7.698,8.213,15.448,16.379,23.163,24.577
	c7.162,7.61,14.317,15.224,21.437,22.869c0.611,0.657,1.234,1.548,1.312,2.38c0.073,0.776-0.379,1.84-0.971,2.361
	c-0.426,0.379-1.583,0.328-2.182,0.021c-0.923-0.478-1.719-1.275-2.445-2.051c-10.088-10.736-20.165-21.486-30.224-32.252
	c-11.066-11.845-22.088-23.729-33.169-35.56c-7.786-8.31-15.671-16.528-23.459-24.839c-9.437-10.065-18.778-20.218-28.236-30.264
	c-2.92-3.1-6.09-5.966-9.461-9.247c-3.059,3.186-6.22,6.41-9.303,9.705c-5.95,6.359-11.843,12.77-17.782,19.138
	c-8.037,8.618-16.084,17.229-24.148,25.819c-5.96,6.355-11.971,12.662-17.926,19.024c-9.611,10.268-19.171,20.581-28.793,30.845
	c-7.604,8.111-15.267,16.169-22.899,24.256c-1.561,1.654-3.061,3.373-4.654,4.996c-0.646,0.658-1.393,1.334-2.225,1.665
	c-1.747,0.697-3.349-0.724-2.836-2.541c0.279-0.982,0.898-1.96,1.605-2.713c7.504-8.023,15.078-15.979,22.586-23.996
	c7.876-8.409,15.68-16.885,23.557-25.296c7.417-7.924,14.904-15.784,22.33-23.701c9.802-10.454,19.563-20.948,29.367-31.404
	c7.788-8.309,15.612-16.583,23.407-24.887c1.457-1.554,2.844-3.172,4.444-4.967c-3.076-3.379-5.994-6.656-8.99-9.86
	c-11.984-12.819-23.979-25.625-35.998-38.415c-9.453-10.054-18.97-20.046-28.41-30.116c-11.176-11.924-22.297-23.9-33.445-35.85
	c-5.207-5.583-10.422-11.159-15.635-16.736c-0.367-0.392-0.762-0.759-1.102-1.174c-1.086-1.333-1.235-2.789,0.088-3.94
	c1.293-1.128,2.482-0.346,3.487,0.719c3.311,3.509,6.644,7,9.94,10.522c6.132,6.555,12.241,13.124,18.361,19.688
	c7.947,8.522,15.878,17.064,23.852,25.564c7.517,8.015,15.098,15.966,22.616,23.979c8.06,8.596,16.066,17.246,24.123,25.844
	c7.425,7.922,14.88,15.816,22.336,23.708c0.634,0.673,1.367,1.252,2.245,2.05c3.171-3.16,6.335-6.161,9.326-9.325
	c8.186-8.667,16.308-17.397,24.443-26.113c7.68-8.224,15.333-16.474,23.023-24.686c7.598-8.114,15.251-16.179,22.845-24.294
	c7.873-8.413,15.688-16.881,23.562-25.29c7.697-8.214,15.44-16.38,23.155-24.575c1.38-1.462,2.674-3.007,4.104-4.418
	c1.69-1.671,3.141-1.909,4.196-0.858c1.027,1.024,0.883,2.679-0.599,4.293c-3.627,3.95-7.323,7.833-10.985,11.747
	c-9.882,10.568-19.743,21.154-29.647,31.7c-7.7,8.204-15.48,16.336-23.176,24.547c-7.604,8.112-15.126,16.302-22.723,24.422
	c-6.038,6.457-12.155,12.84-18.205,19.29C281.907,269.801,273.418,278.914,264.613,288.338"/>
<path fill="none" stroke="#E3D7A8" stroke-miterlimit="10" d="M264.613,288.338c5.376,5.742,10.409,11.104,15.428,16.479
	c7.861,8.423,15.695,16.869,23.574,25.275c5.959,6.354,11.993,12.632,17.95,18.985c7.88,8.406,15.695,16.872,23.575,25.277
	c7.698,8.213,15.448,16.379,23.163,24.577c7.162,7.61,14.317,15.224,21.437,22.869c0.611,0.657,1.234,1.548,1.312,2.38
	c0.073,0.776-0.379,1.84-0.971,2.361c-0.426,0.379-1.583,0.328-2.182,0.021c-0.923-0.478-1.719-1.275-2.445-2.051
	c-10.088-10.736-20.165-21.486-30.224-32.252c-11.066-11.845-22.088-23.729-33.169-35.56c-7.786-8.31-15.671-16.528-23.459-24.839
	c-9.437-10.065-18.778-20.218-28.236-30.264c-2.92-3.1-6.09-5.966-9.461-9.247c-3.059,3.186-6.22,6.41-9.303,9.705
	c-5.95,6.359-11.843,12.77-17.782,19.138c-8.037,8.618-16.084,17.229-24.148,25.819c-5.96,6.355-11.971,12.662-17.926,19.024
	c-9.611,10.268-19.171,20.581-28.793,30.845c-7.604,8.111-15.267,16.169-22.899,24.256c-1.561,1.654-3.061,3.373-4.654,4.996
	c-0.646,0.658-1.393,1.334-2.225,1.665c-1.747,0.697-3.349-0.724-2.836-2.541c0.279-0.982,0.898-1.96,1.605-2.713
	c7.504-8.023,15.078-15.979,22.586-23.996c7.876-8.409,15.68-16.885,23.557-25.296c7.417-7.924,14.904-15.784,22.33-23.701
	c9.802-10.454,19.563-20.948,29.367-31.404c7.788-8.309,15.612-16.583,23.407-24.887c1.457-1.554,2.844-3.172,4.444-4.967
	c-3.076-3.379-5.994-6.656-8.99-9.86c-11.984-12.819-23.979-25.625-35.998-38.415c-9.453-10.054-18.97-20.046-28.41-30.116
	c-11.176-11.924-22.297-23.9-33.445-35.85c-5.207-5.583-10.422-11.159-15.635-16.736c-0.367-0.392-0.762-0.759-1.102-1.174
	c-1.086-1.333-1.235-2.789,0.088-3.94c1.293-1.128,2.482-0.346,3.487,0.719c3.311,3.509,6.644,7,9.94,10.522
	c6.132,6.555,12.241,13.124,18.361,19.688c7.947,8.522,15.878,17.064,23.852,25.564c7.517,8.015,15.098,15.966,22.616,23.979
	c8.06,8.596,16.066,17.246,24.123,25.844c7.425,7.922,14.88,15.816,22.336,23.708c0.634,0.673,1.367,1.252,2.245,2.05
	c3.171-3.16,6.335-6.161,9.326-9.325c8.186-8.667,16.308-17.397,24.443-26.113c7.68-8.224,15.333-16.474,23.023-24.686
	c7.598-8.114,15.251-16.179,22.845-24.294c7.873-8.413,15.688-16.881,23.562-25.29c7.697-8.214,15.44-16.38,23.155-24.575
	c1.38-1.462,2.674-3.007,4.104-4.418c1.69-1.671,3.141-1.909,4.196-0.858c1.027,1.024,0.883,2.679-0.599,4.293
	c-3.627,3.95-7.323,7.833-10.985,11.747c-9.882,10.568-19.743,21.154-29.647,31.7c-7.7,8.204-15.48,16.336-23.176,24.547
	c-7.604,8.112-15.126,16.302-22.723,24.422c-6.038,6.457-12.155,12.84-18.205,19.29
	C281.907,269.801,273.418,278.914,264.613,288.338z"/>
<path fill="#E3D7A8" d="M117.194,304.587c-19.111,20.396-38.287,40.86-57.553,61.423c-1.027-0.94-1.775-1.505-2.376-2.195
	c-1.154-1.32-1.061-2.517,0.217-3.856c4.98-5.24,9.893-10.543,14.787-15.862c4.801-5.212,9.504-10.517,14.334-15.698
	c3.832-4.112,7.833-8.069,11.688-12.156c5.052-5.351,10.037-10.764,14.85-15.936c-0.442-1.941-1.428-3.727-1.037-5.136
	c0.57-2.068,1.877-4.081,3.306-5.743c3.648-4.243,7.784-8.084,11.259-12.458c3.201-4.028,3.813-8.972,3.468-14.081
	c-0.323-4.792-0.822-9.644-0.401-14.395c0.738-8.38,5.134-14.969,12.313-19.149c2.959-1.722,6.857-2.423,10.356-2.513
	c8.464-0.219,15.629,3.582,21.577,9.227c6.97,6.615,11.502,14.793,12.518,24.512c0.987,9.461-2.199,17.253-9.839,23.211
	c-6.473,5.046-13.775,5.099-21.403,4.39c-3.688-0.341-7.486-0.365-11.149,0.113c-4.853,0.631-7.578,4.764-10.88,7.802
	c-2.55,2.349-4.767,5.053-7.223,7.509C123.141,306.457,121.525,306.617,117.194,304.587"/>
<path fill="none" stroke="#E3D7A8" stroke-miterlimit="10" d="M117.194,304.587c-19.111,20.396-38.287,40.86-57.553,61.423
	c-1.027-0.94-1.775-1.505-2.376-2.195c-1.154-1.32-1.061-2.517,0.217-3.856c4.98-5.24,9.893-10.543,14.787-15.862
	c4.801-5.212,9.504-10.517,14.334-15.698c3.832-4.112,7.833-8.069,11.688-12.156c5.052-5.351,10.037-10.764,14.85-15.936
	c-0.442-1.941-1.428-3.727-1.037-5.136c0.57-2.068,1.877-4.081,3.306-5.743c3.648-4.243,7.784-8.084,11.259-12.458
	c3.201-4.028,3.813-8.972,3.468-14.081c-0.323-4.792-0.822-9.644-0.401-14.395c0.738-8.38,5.134-14.969,12.313-19.149
	c2.959-1.722,6.857-2.423,10.356-2.513c8.464-0.219,15.629,3.582,21.577,9.227c6.97,6.615,11.502,14.793,12.518,24.512
	c0.987,9.461-2.199,17.253-9.839,23.211c-6.473,5.046-13.775,5.099-21.403,4.39c-3.688-0.341-7.486-0.365-11.149,0.113
	c-4.853,0.631-7.578,4.764-10.88,7.802c-2.55,2.349-4.767,5.053-7.223,7.509C123.141,306.457,121.525,306.617,117.194,304.587z"/>
<path fill="#E3D7A8" d="M242.791,403.167c0.091-1.391,0.239-2.777,0.267-4.167c0.184-8.641,1.365-17.095,4.638-25.159
	c2.438-6.011,5.626-11.569,10.118-16.3c0.915-0.962,1.94-2.009,3.127-2.472c1.116-0.435,2.812-0.624,3.705-0.06
	c0.891,0.565,1.276,2.163,1.551,3.382c0.159,0.693-0.363,1.533-0.552,2.312c-3.6,14.818-1.967,29.058,5.108,42.542
	c1.951,3.713,4.273,7.347,7.932,10.434c0.733-2.186,1.377-4.031,1.975-5.896c2.184-6.807,5.78-12.621,11.635-16.922
	c1.12-0.823,2.162-1.798,3.582-1.09c1.551,0.771,1.718,2.335,1.516,3.841c-0.231,1.723-0.733,3.405-0.993,5.127
	c-1.055,6.909-2.163,13.885,0.764,20.586c1.604,3.674,3.921,7.029,5.613,10.669c6.511,14.004,6.077,27.768-1.771,41.178
	c-2.577,4.403-5.271,8.674-9.263,12.045c-6.683,5.642-14.354,8.727-23.008,9.31c-6.859,0.463-13.711,0.192-20.316-1.949
	c-14.815-4.8-26.189-12.321-29.073-32.109c-1.341-9.193,1.163-17.873,6.129-25.707c3.425-5.405,6.278-10.989,6.396-17.514
	c0.06-3.19-0.425-6.391-0.695-9.585c-0.155-1.866-0.614-3.741-0.502-5.585c0.164-2.653,2.257-3.794,4.563-2.429
	c1.692,1.001,3.134,2.481,4.538,3.898c0.635,0.642,0.903,1.648,1.338,2.489C241.672,403.748,242.231,403.457,242.791,403.167
	 M257.826,381.982c-0.046-1.575-0.094-3.147-0.143-4.725c0.451-2.573,0.531-5.128-0.462-7.84c-0.63,0.299-0.899,0.754-1.162,1.213
	c-0.593,1.049-1.255,2.068-1.759,3.157c-5.564,11.978-6.533,24.503-3.97,37.302c1.333,6.657,1.388,13.321,1.037,20.008
	c-0.094,1.766-0.988,3.598-1.898,5.179c-1.002,1.742-3.565,2.438-5.341,1.869c-1.793-0.577-2.479-1.874-2.466-4.52
	c0.017-3.754,0.139-7.513-0.042-11.258c-0.166-3.449-0.732-6.866-2.931-10.067c-0.336,1.373-0.761,2.517-0.878,3.69
	c-0.711,7.051-2.743,13.652-6.787,19.509c-2.559,3.709-4.054,7.782-5.212,12.093c-2.503,9.321-0.014,17.531,5.527,24.928
	c6.602,8.815,16.682,11.315,26.672,13.14c7.114,1.3,14.357,0.288,21.26-2.468c7.161-2.857,12.413-7.695,16.208-14.312
	c4.966-8.663,7.528-17.67,4.845-27.7c-1.563-5.852-3.288-11.564-7.171-16.386c-0.571-0.71-0.982-1.632-1.213-2.521
	c-1.077-4.14-2.427-8.23-2.032-12.625c0.123-1.373-0.15-2.781-0.271-4.679c-1.025,0.65-1.68,0.824-1.82,1.196
	c-0.954,2.481-2.01,4.956-2.618,7.531c-0.551,2.323-0.394,4.811-0.905,7.149c-0.293,1.336-1.004,2.937-2.05,3.66
	c-1.463,1.009-2.714-0.383-3.718-1.494c-2.871-3.174-6.034-6.144-8.519-9.595c-5.546-7.702-9.312-16.23-10.726-25.713
	C258.988,385.768,258.319,383.889,257.826,381.982"/>
<path fill="none" stroke="#E3D7A8" stroke-miterlimit="10" d="M242.791,403.167c0.091-1.391,0.239-2.777,0.267-4.167
	c0.184-8.641,1.365-17.095,4.638-25.159c2.438-6.011,5.626-11.569,10.118-16.3c0.915-0.962,1.94-2.009,3.127-2.472
	c1.116-0.435,2.812-0.624,3.705-0.06c0.891,0.565,1.276,2.163,1.551,3.382c0.159,0.693-0.363,1.533-0.552,2.312
	c-3.6,14.818-1.967,29.058,5.108,42.542c1.951,3.713,4.273,7.347,7.932,10.434c0.733-2.186,1.377-4.031,1.975-5.896
	c2.184-6.807,5.78-12.621,11.635-16.922c1.12-0.823,2.162-1.798,3.582-1.09c1.551,0.771,1.718,2.335,1.516,3.841
	c-0.231,1.723-0.733,3.405-0.993,5.127c-1.055,6.909-2.163,13.885,0.764,20.586c1.604,3.674,3.921,7.029,5.613,10.669
	c6.511,14.004,6.077,27.768-1.771,41.178c-2.577,4.403-5.271,8.674-9.263,12.045c-6.683,5.642-14.354,8.727-23.008,9.31
	c-6.859,0.463-13.711,0.192-20.316-1.949c-14.815-4.8-26.189-12.321-29.073-32.109c-1.341-9.193,1.163-17.873,6.129-25.707
	c3.425-5.405,6.278-10.989,6.396-17.514c0.06-3.19-0.425-6.391-0.695-9.585c-0.155-1.866-0.614-3.741-0.502-5.585
	c0.164-2.653,2.257-3.794,4.563-2.429c1.692,1.001,3.134,2.481,4.538,3.898c0.635,0.642,0.903,1.648,1.338,2.489
	C241.672,403.748,242.231,403.457,242.791,403.167z M257.826,381.982c-0.046-1.575-0.094-3.147-0.143-4.725
	c0.451-2.573,0.531-5.128-0.462-7.84c-0.63,0.299-0.899,0.754-1.162,1.213c-0.593,1.049-1.255,2.068-1.759,3.157
	c-5.564,11.978-6.533,24.503-3.97,37.302c1.333,6.657,1.388,13.321,1.037,20.008c-0.094,1.766-0.988,3.598-1.898,5.179
	c-1.002,1.742-3.565,2.438-5.341,1.869c-1.793-0.577-2.479-1.874-2.466-4.52c0.017-3.754,0.139-7.513-0.042-11.258
	c-0.166-3.449-0.732-6.866-2.931-10.067c-0.336,1.373-0.761,2.517-0.878,3.69c-0.711,7.051-2.743,13.652-6.787,19.509
	c-2.559,3.709-4.054,7.782-5.212,12.093c-2.503,9.321-0.014,17.531,5.527,24.928c6.602,8.815,16.682,11.315,26.672,13.14
	c7.114,1.3,14.357,0.288,21.26-2.468c7.161-2.857,12.413-7.695,16.208-14.312c4.966-8.663,7.528-17.67,4.845-27.7
	c-1.563-5.852-3.288-11.564-7.171-16.386c-0.571-0.71-0.982-1.632-1.213-2.521c-1.077-4.14-2.427-8.23-2.032-12.625
	c0.123-1.373-0.15-2.781-0.271-4.679c-1.025,0.65-1.68,0.824-1.82,1.196c-0.954,2.481-2.01,4.956-2.618,7.531
	c-0.551,2.323-0.394,4.811-0.905,7.149c-0.293,1.336-1.004,2.937-2.05,3.66c-1.463,1.009-2.714-0.383-3.718-1.494
	c-2.871-3.174-6.034-6.144-8.519-9.595c-5.546-7.702-9.312-16.23-10.726-25.713C258.988,385.768,258.319,383.889,257.826,381.982z"
	/>
<path fill="#E3D7A8" d="M464.108,363.744c-2.967-1.084-5.744-1.99-8.427-3.119c-1.634-0.689-2.566-2.083-1.885-3.916
	c0.689-1.841-0.072-3.156-1.272-4.312c-2.604-2.506-5.075-5.22-7.969-7.341c-5.441-3.986-9.345-9.13-12.59-14.921
	c-4.189-7.474-5.349-7.759-12.794-3.452c-1.85,1.07-3.732,2.092-5.525,3.254c-1.319,0.853-2.395,0.952-3.553-0.264
	c-5.356-5.62-10.849-11.115-16.095-16.835c-5.701-6.217-11.395-12.46-16.717-18.997c-9.065-11.139-17.1-23.01-23.64-35.826
	c-3.346-6.557-6.473-13.228-9.576-19.907c-0.838-1.8-1.501-3.775-1.743-5.732c-0.354-2.862,1.427-4.076,3.98-2.81
	c10.433,5.177,20.789,10.332,29.58,18.343c9.423,8.583,18.31,17.648,26.942,26.988c8.63,9.338,17.115,18.806,25.787,28.106
	c2.25,2.409,5.176,4.188,7.406,6.612c7.981,8.667,15.774,17.504,23.681,26.241c4.044,4.465,8.161,8.869,12.275,13.272
	c3.74,4.002,3.138,9.008-1.601,11.777C468.463,362.025,466.322,362.756,464.108,363.744 M348.116,235.348
	c-0.142-0.133-0.283-0.263-0.424-0.394c0.032,0.253,0.068,0.506,0.101,0.76c0.155,0.755,0.168,1.577,0.483,2.252
	c2.385,5.088,4.731,10.197,7.271,15.208c7.533,14.876,16.709,28.679,27.52,41.372c5.639,6.618,11.431,13.106,17.246,19.572
	c3.385,3.762,6.948,7.361,10.742,11.364c5.788-6.077,11.101-11.652,16.595-17.421c-1.108-1.253-1.867-2.14-2.657-3.002
	c-4.431-4.827-8.88-9.637-13.299-14.475c-5.505-6.029-10.853-12.201-16.5-18.087c-8.245-8.589-16.511-17.143-25.81-24.678
	C362.875,242.546,355.677,238.701,348.116,235.348"/>
<path fill="none" stroke="#E3D7A8" stroke-miterlimit="10" d="M464.108,363.744c-2.967-1.084-5.744-1.99-8.427-3.119
	c-1.634-0.689-2.566-2.083-1.885-3.916c0.689-1.841-0.072-3.156-1.272-4.312c-2.604-2.506-5.075-5.22-7.969-7.341
	c-5.441-3.986-9.345-9.13-12.59-14.921c-4.189-7.474-5.349-7.759-12.794-3.452c-1.85,1.07-3.732,2.092-5.525,3.254
	c-1.319,0.853-2.395,0.952-3.553-0.264c-5.356-5.62-10.849-11.115-16.095-16.835c-5.701-6.217-11.395-12.46-16.717-18.997
	c-9.065-11.139-17.1-23.01-23.64-35.826c-3.346-6.557-6.473-13.228-9.576-19.907c-0.838-1.8-1.501-3.775-1.743-5.732
	c-0.354-2.862,1.427-4.076,3.98-2.81c10.433,5.177,20.789,10.332,29.58,18.343c9.423,8.583,18.31,17.648,26.942,26.988
	c8.63,9.338,17.115,18.806,25.787,28.106c2.25,2.409,5.176,4.188,7.406,6.612c7.981,8.667,15.774,17.504,23.681,26.241
	c4.044,4.465,8.161,8.869,12.275,13.272c3.74,4.002,3.138,9.008-1.601,11.777C468.463,362.025,466.322,362.756,464.108,363.744z
	 M348.116,235.348c-0.142-0.133-0.283-0.263-0.424-0.394c0.032,0.253,0.068,0.506,0.101,0.76c0.155,0.755,0.168,1.577,0.483,2.252
	c2.385,5.088,4.731,10.197,7.271,15.208c7.533,14.876,16.709,28.679,27.52,41.372c5.639,6.618,11.431,13.106,17.246,19.572
	c3.385,3.762,6.948,7.361,10.742,11.364c5.788-6.077,11.101-11.652,16.595-17.421c-1.108-1.253-1.867-2.14-2.657-3.002
	c-4.431-4.827-8.88-9.637-13.299-14.475c-5.505-6.029-10.853-12.201-16.5-18.087c-8.245-8.589-16.511-17.143-25.81-24.678
	C362.875,242.546,355.677,238.701,348.116,235.348z"/>
<path fill="#E3D7A8" d="M226.082,132.647c0-10.996-0.02-21.993,0.008-32.987c0.012-4.681,0.966-5.61,5.698-5.631
	c6.169-0.029,12.343,0.153,18.505-0.04c16.435-0.517,29.925,10.834,34.753,25.427c4.877,14.746,2.221,28.423-7.983,40.145
	c-6.663,7.65-15.252,12.017-25.737,11.902c-6.437-0.07-12.874-0.002-19.311-0.017c-4.968-0.009-5.907-0.892-5.922-5.811
	C226.056,154.641,226.082,143.644,226.082,132.647 M233.815,163.191c7.13,0,13.839,0.159,20.535-0.059
	c4.208-0.136,8.23-1.484,11.672-3.963c9.361-6.744,13.877-15.871,13.799-27.517c-0.105-15.515-13.294-30.841-30.335-29.788
	c-3.61,0.223-7.247,0.033-10.87,0.033h-4.801V163.191z"/>
<path fill="none" stroke="#E3D7A8" stroke-miterlimit="10" d="M226.082,132.647c0-10.996-0.02-21.993,0.008-32.987
	c0.012-4.681,0.966-5.61,5.698-5.631c6.169-0.029,12.343,0.153,18.505-0.04c16.435-0.517,29.925,10.834,34.753,25.427
	c4.877,14.746,2.221,28.423-7.983,40.145c-6.663,7.65-15.252,12.017-25.737,11.902c-6.437-0.07-12.874-0.002-19.311-0.017
	c-4.968-0.009-5.907-0.892-5.922-5.811C226.056,154.641,226.082,143.644,226.082,132.647z M233.815,163.191
	c7.13,0,13.839,0.159,20.535-0.059c4.208-0.136,8.23-1.484,11.672-3.963c9.361-6.744,13.877-15.871,13.799-27.517
	c-0.105-15.515-13.294-30.841-30.335-29.788c-3.61,0.223-7.247,0.033-10.87,0.033h-4.801V163.191z"/>
<path fill="#E3D7A8" d="M364.035,132.632c0.125,13.462-5.152,24.389-15.629,32.115c-10.04,7.403-21.364,9.348-33.277,3.936
	c-14.147-6.426-21.428-17.627-22.653-32.846c-0.987-12.234,2.653-22.861,11.566-31.646c10.194-10.054,22.141-12.45,35.454-8.332
	c6.801,2.103,12.197,6.666,16.515,12.279C361.582,115.384,364.213,123.679,364.035,132.632 M327.553,163.232
	c12.603,0.104,20.74-6.009,25.853-16.19c5.634-11.222,4.542-22.391-2.364-32.758c-4.487-6.74-11.039-11.152-19.07-12.179
	c-11.184-1.433-20.155,3.108-26.658,12.207c-5.718,7.999-6.977,17.02-4.73,26.427C303.525,153.071,314.548,163.901,327.553,163.232"
	/>
<path fill="none" stroke="#E3D7A8" stroke-miterlimit="10" d="M364.035,132.632c0.125,13.462-5.152,24.389-15.629,32.115
	c-10.04,7.403-21.364,9.348-33.277,3.936c-14.147-6.426-21.428-17.627-22.653-32.846c-0.987-12.234,2.653-22.861,11.566-31.646
	c10.194-10.054,22.141-12.45,35.454-8.332c6.801,2.103,12.197,6.666,16.515,12.279C361.582,115.384,364.213,123.679,364.035,132.632
	z M327.553,163.232c12.603,0.104,20.74-6.009,25.853-16.19c5.634-11.222,4.542-22.391-2.364-32.758
	c-4.487-6.74-11.039-11.152-19.07-12.179c-11.184-1.433-20.155,3.108-26.658,12.207c-5.718,7.999-6.977,17.02-4.73,26.427
	C303.525,153.071,314.548,163.901,327.553,163.232z"/>
<path fill="#E3D7A8" d="M198.684,101.897v4.73c0,19.303,0.001,38.607-0.003,57.91c0,1.205,0.063,2.422-0.079,3.614
	c-0.27,2.302-1.204,3.177-3.3,3.276c-1.988,0.093-3.429-0.616-3.722-2.775c-0.211-1.581-0.485-3.17-0.487-4.757
	c-0.034-19.035-0.021-38.07-0.021-57.104v-4.893c-1.593,0-2.886,0.001-4.178-0.001c-4.425-0.006-8.852,0.088-13.27-0.055
	c-2.642-0.086-3.695-1.32-3.733-3.731c-0.043-2.771,0.923-3.884,3.785-4.044c2.138-0.124,4.289-0.045,6.434-0.045
	c11.796-0.002,23.591,0.014,35.389-0.01c1.99-0.004,3.781,0.169,4.471,2.469c0.922,3.08-0.578,5.261-3.999,5.374
	c-4.288,0.143-8.579,0.041-12.87,0.042C201.795,101.897,200.488,101.897,198.684,101.897"/>
<path fill="none" stroke="#E3D7A8" stroke-miterlimit="10" d="M198.684,101.897v4.73c0,19.303,0.001,38.607-0.003,57.91
	c0,1.205,0.063,2.422-0.079,3.614c-0.27,2.302-1.204,3.177-3.3,3.276c-1.988,0.093-3.429-0.616-3.722-2.775
	c-0.211-1.581-0.485-3.17-0.487-4.757c-0.034-19.035-0.021-38.07-0.021-57.104v-4.893c-1.593,0-2.886,0.001-4.178-0.001
	c-4.425-0.006-8.852,0.088-13.27-0.055c-2.642-0.086-3.695-1.32-3.733-3.731c-0.043-2.771,0.923-3.884,3.785-4.044
	c2.138-0.124,4.289-0.045,6.434-0.045c11.796-0.002,23.591,0.014,35.389-0.01c1.99-0.004,3.781,0.169,4.471,2.469
	c0.922,3.08-0.578,5.261-3.999,5.374c-4.288,0.143-8.579,0.041-12.87,0.042C201.795,101.897,200.488,101.897,198.684,101.897z"/>
<path fill="#E4E4DE" d="M347.794,235.715c-0.033-0.254-0.069-0.507-0.101-0.76c0.139,0.132,0.282,0.261,0.423,0.394
	C348.005,235.467,347.9,235.591,347.794,235.715"/>
<path fill="none" stroke="#E3D7A8" stroke-miterlimit="10" d="M347.794,235.715c-0.033-0.254-0.069-0.507-0.101-0.76
	c0.139,0.132,0.282,0.261,0.423,0.394C348.005,235.467,347.9,235.591,347.794,235.715z"/>
</svg>
